<?xml version="1.0" encoding="UTF-8"?>
<svg width="150px" height="22px" viewBox="0 0 150 22" version="1.1" xmlns="http://www.w3.org/2000/svg" xmlns:xlink="http://www.w3.org/1999/xlink">
    <!-- Generator: Sketch 47.1 (45422) - http://www.bohemiancoding.com/sketch -->
    <title>logo</title>
    <desc>Created with Sketch.</desc>
    <defs></defs>
    <g id="Welcome" stroke="none" stroke-width="1" fill="none" fill-rule="evenodd">
        <g id="logo" fill="#5965E5">
            <path d="M17.4003257,16.0088855 C17.117154,16.8193424 16.8095755,17.5174966 16.4775811,18.1033691 C16.1455867,18.6892416 15.8013918,19.1799024 15.444986,19.5753664 C15.0885803,19.9708303 14.7248566,20.2881731 14.353804,20.5274044 C13.9827514,20.7666356 13.6214688,20.949718 13.2699453,21.0766571 C12.9184218,21.2035961 12.5815502,21.2865935 12.2593203,21.3256516 C11.9370905,21.3647098 11.6441586,21.3842386 11.380516,21.3842386 C10.55053,21.3842386 9.88166896,21.1669808 9.37391281,20.7324587 C8.86615666,20.2979366 8.55369603,19.6559277 8.43652153,18.8064126 C8.21193708,19.1481715 7.95562171,19.482602 7.66756774,19.8097142 C7.37951378,20.1368263 7.05240655,20.4297582 6.68623625,20.6885185 C6.32006595,20.9472789 5.91240246,21.1572133 5.46323356,21.3183283 C5.01406466,21.4794432 4.52584492,21.5599995 3.99855968,21.5599995 C3.48103899,21.5599995 2.98305485,21.4770021 2.50459233,21.3110049 C2.0261298,21.1450077 1.60137863,20.8716046 1.23032606,20.4907875 C0.859273486,20.1099704 0.561459442,19.6119863 0.336874992,18.9968202 C0.112290541,18.3816541 0,17.6297957 0,16.7412224 C0,16.0577045 0.0683507641,15.3253749 0.205054343,14.5442116 C0.341757921,13.7630483 0.551692411,12.9818967 0.83486411,12.2007334 C1.11803581,11.4195701 1.47199512,10.6701528 1.89675267,9.95245899 C2.32151022,9.2347652 2.81949436,8.60007954 3.39072002,8.04838295 C3.96194569,7.49668637 4.60883685,7.0572886 5.33141291,6.73017646 C6.05398897,6.40306433 6.84978715,6.23951072 7.71883133,6.23951072 C8.56834643,6.23951072 9.1859444,6.38597664 9.57164378,6.67891288 C9.95734317,6.97184912 10.15019,7.33313173 10.15019,7.76277155 L10.15019,7.87994546 L11.6148638,0.981331497 L16.0528257,0.380815208 L12.6108421,16.5801083 C12.5620194,16.7461055 12.527844,16.9096591 12.5083149,17.070774 C12.4887858,17.231889 12.4790214,17.3905604 12.4790214,17.546793 C12.4790214,17.9666683 12.5791065,18.2571591 12.7792796,18.418274 C12.9794527,18.5793889 13.2894722,18.6599452 13.7093475,18.6599452 C14.0022837,18.6599452 14.2732457,18.5940355 14.5222415,18.4622142 C14.7712373,18.3303929 14.9958184,18.1473105 15.1959915,17.9129615 C15.3961646,17.6786125 15.5743648,17.3978862 15.7305974,17.070774 C15.8868301,16.7436619 16.0235316,16.3897026 16.1407061,16.0088855 L17.4003257,16.0088855 Z M8.40722805,16.0088855 L9.87190193,9.13956499 C9.85237285,9.05168412 9.82063856,8.94915797 9.77669813,8.83198348 C9.73275769,8.71480898 9.66684803,8.60007734 9.57896715,8.48778512 C9.49108628,8.37549289 9.37147244,8.28273114 9.22012205,8.20949708 C9.06877166,8.13626302 8.87592486,8.09964654 8.64157587,8.09964654 C8.2217006,8.09964654 7.8238015,8.23634807 7.44786666,8.50975522 C7.07193182,8.78316238 6.7277369,9.14688609 6.41527158,9.60093726 C6.10280626,10.0549884 5.824521,10.5700603 5.58040747,11.1461682 C5.33629394,11.7222761 5.12880055,12.3154631 4.95792107,12.925747 C4.7870416,13.5360308 4.65766337,14.1365411 4.5697825,14.7272958 C4.48190162,15.3180506 4.43796185,15.847769 4.43796185,16.316467 C4.43796185,16.8925749 4.49166602,17.3368549 4.59907597,17.6493202 C4.70648593,17.9617855 4.83586416,18.1936899 4.98721455,18.3450403 C5.13856494,18.4963907 5.30211856,18.5867113 5.4778803,18.616005 C5.65364204,18.6452986 5.80987236,18.6599452 5.94657594,18.6599452 C6.15163131,18.6599452 6.37865349,18.6086821 6.62764929,18.5061544 C6.8766451,18.4036267 7.11587277,18.2498375 7.34533949,18.0447822 C7.57480621,17.8397268 7.7847407,17.5809703 7.97514926,17.268505 C8.16555781,16.9560397 8.30958264,16.5898749 8.40722805,16.1699996 L8.40722805,16.0088855 Z M25.1307205,2.40206516 C25.1307205,2.73405956 25.0672519,3.0440791 24.9403129,3.33213307 C24.8133739,3.62018704 24.6400558,3.86917911 24.4203537,4.07911675 C24.2006515,4.28905439 23.9467772,4.4550491 23.6587232,4.57710586 C23.3706693,4.69916263 23.0606497,4.7601901 22.7286553,4.7601901 C22.3966609,4.7601901 22.0866414,4.69916263 21.7985874,4.57710586 C21.5105335,4.4550491 21.2591003,4.28905439 21.0442804,4.07911675 C20.8294605,3.86917911 20.6610247,3.62018704 20.5389679,3.33213307 C20.4169111,3.0440791 20.3558837,2.73405956 20.3558837,2.40206516 C20.3558837,2.07007075 20.4169111,1.76005122 20.5389679,1.47199725 C20.6610247,1.18394328 20.8294605,0.93006901 21.0442804,0.71036683 C21.2591003,0.49066465 21.5105335,0.317346641 21.7985874,0.190407604 C22.0866414,0.0634685666 22.3966609,0 22.7286553,0 C23.0606497,0 23.3706693,0.0634685666 23.6587232,0.190407604 C23.9467772,0.317346641 24.2006515,0.49066465 24.4203537,0.71036683 C24.6400558,0.93006901 24.8133739,1.18394328 24.9403129,1.47199725 C25.0672519,1.76005122 25.1307205,2.07007075 25.1307205,2.40206516 Z M26.9908563,16.0088855 C26.7076846,16.8193424 26.3927829,17.5223788 26.0461417,18.1180159 C25.6995005,18.7136529 25.3382178,19.2165192 24.962283,19.6266299 C24.5863482,20.0367407 24.2006546,20.3687301 23.8051906,20.6226082 C23.4097267,20.8764863 23.0264742,21.0717742 22.6554216,21.2084777 C22.2843691,21.3451813 21.9304098,21.4379431 21.5935331,21.4867658 C21.2566564,21.5355885 20.9564013,21.5599995 20.6927586,21.5599995 C20.2435897,21.5599995 19.8237208,21.4916487 19.4331391,21.3549451 C19.0425575,21.2182415 18.7032447,21.0034249 18.4151908,20.7104886 C18.1271368,20.4175524 17.9001146,20.0465054 17.7341174,19.5973365 C17.5681202,19.1481676 17.4851229,18.6062437 17.4851229,17.9715485 C17.4851229,17.6981413 17.5046516,17.3978862 17.5437098,17.070774 C17.582768,16.7436619 17.6413543,16.3897026 17.7194707,16.0088855 L19.7553674,6.3859781 L24.0761553,6.3859781 L21.9230847,16.5801083 C21.874262,16.7461055 21.8425277,16.9096591 21.8278809,17.070774 C21.8132341,17.231889 21.8059108,17.3905604 21.8059108,17.546793 C21.8059108,17.9666683 21.9035547,18.2571591 22.0988456,18.418274 C22.2941364,18.5793889 22.6017148,18.6599452 23.0215901,18.6599452 C23.3145264,18.6599452 23.6001349,18.5940355 23.8784243,18.4622142 C24.1567138,18.3303929 24.4130291,18.1473105 24.6473781,17.9129615 C24.8817271,17.6786125 25.0916616,17.3978862 25.2771879,17.070774 C25.4627142,16.7436619 25.6140623,16.3897026 25.7312368,16.0088855 L26.9908563,16.0088855 Z M51.1255986,16.0088855 C50.7057233,17.2392177 50.25412,18.2205394 49.7707752,18.95288 C49.2874304,19.6852206 48.7992107,20.2442322 48.3061014,20.6299316 C47.812992,21.0156309 47.3296545,21.2670641 46.8560742,21.3842386 C46.382494,21.5014131 45.9455373,21.5599995 45.5451911,21.5599995 C44.8812023,21.5599995 44.3246318,21.4647966 43.8754629,21.2743881 C43.426294,21.0839795 43.0650114,20.8301052 42.7916042,20.5127576 C42.5181971,20.1954101 42.3204681,19.8341274 42.1984113,19.428899 C42.0763545,19.0236705 42.0153271,18.6062426 42.0153271,18.1766028 C42.0153271,17.6688467 42.0861189,17.0756597 42.2277048,16.3970241 C42.3692906,15.7183884 42.5230798,15.0226753 42.689077,14.3098638 C42.8550743,13.5970523 43.0088635,12.9086624 43.1504493,12.2446736 C43.2920352,11.5806848 43.362827,11.0094677 43.362827,10.5310052 C43.362827,9.50572833 43.0015444,8.9930976 42.2789684,8.9930976 C42.0055612,8.9930976 41.7516869,9.06633056 41.5173379,9.21279868 C41.282989,9.3592668 41.0681723,9.5569958 40.8728814,9.8059916 C40.6775906,10.0549874 40.5018315,10.3479193 40.3455988,10.6847959 C40.1893662,11.0216726 40.0526647,11.3805141 39.9354902,11.7613312 L37.8995935,21.3842386 L33.5788055,21.3842386 L35.7758164,11.0289943 C35.8344036,10.7946453 35.8636968,10.5456532 35.8636968,10.2820106 C35.8636968,10.1062489 35.8490502,9.94025416 35.8197566,9.7840215 C35.7904629,9.62778884 35.7391999,9.48864621 35.6659658,9.36658944 C35.5927318,9.24453268 35.49997,9.14688873 35.3876778,9.07365467 C35.2753855,9.00042061 35.1313607,8.96380413 34.955599,8.96380413 C34.6626627,8.96380413 34.3917008,9.03703709 34.142705,9.18350521 C33.8937092,9.32997333 33.6691281,9.53014342 33.468955,9.7840215 C33.2687819,10.0378996 33.0905817,10.3357136 32.934349,10.6774726 C32.7781164,11.0192315 32.6414148,11.3805141 32.5242403,11.7613312 L30.4883437,21.3842386 L26.1675557,21.3842386 L29.345898,6.3859781 L33.666686,6.3859781 L33.3444577,7.93853241 C33.6666876,7.57724438 33.9889126,7.28675364 34.3111425,7.06705146 C34.6333723,6.84734928 34.9507152,6.67647237 35.2631805,6.5544156 C35.5756458,6.43235883 35.8783421,6.34936148 36.1712783,6.30542104 C36.4642145,6.2614806 36.7424998,6.23951072 37.0061424,6.23951072 C37.3967241,6.23951072 37.7628889,6.28589159 38.1046478,6.37865473 C38.4464068,6.47141788 38.749103,6.6203249 39.0127456,6.82538027 C39.2763882,7.03043563 39.5009693,7.29651539 39.6864956,7.62362753 C39.8720219,7.95073966 40.0038412,8.34863875 40.0819575,8.81733674 C40.4432456,8.26075788 40.8142926,7.81403682 41.1951097,7.47716014 C41.5759268,7.14028346 41.9469738,6.8839681 42.3082618,6.70820636 C42.6695499,6.53244461 43.0161859,6.41527187 43.3481803,6.35668463 C43.6801747,6.29809738 43.9828709,6.26880419 44.2562781,6.26880419 C44.7347406,6.26880419 45.1765795,6.33227276 45.581808,6.4592118 C45.9870364,6.58615083 46.3385546,6.78632093 46.6363731,7.05972809 C46.9341917,7.33313524 47.166096,7.68465346 47.3320932,8.11429328 C47.4980904,8.5439331 47.5810878,9.05656383 47.5810878,9.65220085 C47.5810878,10.052547 47.5444713,10.4846215 47.4712373,10.9484372 C47.3980032,11.4122529 47.3101236,11.8858261 47.207596,12.3691709 C47.1050683,12.8525157 46.9903366,13.3334121 46.8633976,13.8118747 C46.7364586,14.2903372 46.6217269,14.7492637 46.5191992,15.1886681 C46.4166716,15.6280725 46.328792,16.0357359 46.2555579,16.4116708 C46.1823239,16.7876056 46.1457074,17.117154 46.1457074,17.4003257 C46.1457074,17.7713782 46.2311459,18.0740745 46.4020253,18.3084235 C46.5729048,18.5427725 46.8878065,18.6599452 47.34674,18.6599452 C47.6689698,18.6599452 47.9521373,18.5964766 48.1962508,18.4695376 C48.4403644,18.3425985 48.6600632,18.1619572 48.8553541,17.9276083 C49.0506449,17.6932593 49.2288451,17.4125329 49.38996,17.0854208 C49.551075,16.7583086 49.7097464,16.3994671 49.865979,16.0088855 L51.1255986,16.0088855 Z M60.8625966,17.1220376 C60.706364,17.9910818 60.4622541,18.7087648 60.1302597,19.2751082 C59.7982653,19.8414516 59.4028073,20.295496 58.9438739,20.6372549 C58.4849404,20.9790139 57.9771919,21.2182415 57.420613,21.3549451 C56.8640342,21.4916487 56.2830527,21.5599995 55.6776511,21.5599995 C54.9746041,21.5599995 54.3374774,21.4696788 53.7662517,21.2890348 C53.195026,21.1083908 52.7068063,20.8276644 52.3015778,20.4468473 C51.8963494,20.0660302 51.5814476,19.5753694 51.3568632,18.9748501 C51.1322787,18.3743308 51.0199882,17.6493245 51.0199882,16.7998094 C51.0199882,16.2237014 51.0785745,15.5597226 51.195749,14.8078529 C51.3129235,14.0559832 51.498447,13.284596 51.7523251,12.4936682 C52.0062032,11.7027403 52.3430748,10.9264709 52.7629501,10.1648367 C53.1828254,9.40320248 53.6905739,8.72213594 54.2862109,8.12161665 C54.8818479,7.52109735 55.5800022,7.03775981 56.3806946,6.67158951 C57.181387,6.30541921 58.0943579,6.1223368 59.1196347,6.1223368 C59.7933881,6.1223368 60.3426353,6.20289306 60.7673928,6.36400799 C61.1921504,6.52512293 61.529022,6.73749851 61.7780178,7.00114113 C62.0270136,7.26478375 62.1978905,7.56992109 62.2906537,7.9165623 C62.3834168,8.26320352 62.4297977,8.62204503 62.4297977,8.9930976 C62.4297977,9.86214178 62.239392,10.6701455 61.8585749,11.4171329 C61.4777578,12.1641203 60.9675681,12.8158936 60.3279907,13.3724725 C59.6884132,13.9290514 58.9536425,14.3782135 58.1236565,14.7199725 C57.2936705,15.0617314 56.4295215,15.2619015 55.5311837,15.3204888 C55.5116546,15.486486 55.4945669,15.6451574 55.4799201,15.7965078 C55.4652733,15.9478582 55.45795,16.091883 55.45795,16.2285866 C55.45795,16.7070491 55.506772,17.1073893 55.6044174,17.4296191 C55.7020628,17.751849 55.8338822,18.0081644 55.9998794,18.1985729 C56.1658766,18.3889815 56.3611645,18.5232419 56.5857489,18.6013582 C56.8103334,18.6794746 57.0544432,18.7185321 57.3180858,18.7185321 C57.6110221,18.7185321 57.9161594,18.6745924 58.233507,18.5867115 C58.5508546,18.4988306 58.8633153,18.3816579 59.1708983,18.2351898 C59.4784814,18.0887216 59.7787365,17.9202858 60.0716727,17.7298773 C60.364609,17.5394687 60.6282476,17.3368575 60.8625966,17.1220376 Z M55.7362381,13.8851084 C56.312346,13.8655793 56.8640343,13.71179 57.3913195,13.4237361 C57.9186048,13.1356821 58.3848546,12.7646351 58.7900831,12.3105839 C59.1953116,11.8565328 59.5175366,11.3365787 59.7567679,10.7507063 C59.9959991,10.1648338 60.115613,9.55944129 60.115613,8.93451065 C60.115613,8.56345808 60.0619088,8.26564403 59.9544988,8.04105958 C59.8470889,7.81647513 59.651801,7.70418459 59.3686293,7.70418459 C58.9878122,7.70418459 58.6143241,7.89214919 58.2481538,8.26808403 C57.8819835,8.64401888 57.5402296,9.12979752 57.222882,9.72543454 C56.9055345,10.3210716 56.6174848,10.9850504 56.3587245,11.717391 C56.0999641,12.4497316 55.8924707,13.1722968 55.7362381,13.8851084 Z M105.53731,16.0088855 C105.254138,16.8193424 104.94656,17.5174966 104.614565,18.1033691 C104.282571,18.6892416 103.938376,19.1799024 103.58197,19.5753664 C103.225564,19.9708303 102.861841,20.2881731 102.490788,20.5274044 C102.119736,20.7666356 101.758453,20.949718 101.406929,21.0766571 C101.055406,21.2035961 100.718534,21.2865935 100.396305,21.3256516 C100.074075,21.3647098 99.7811428,21.3842386 99.5175002,21.3842386 C98.6875142,21.3842386 98.0186531,21.1669808 97.510897,20.7324587 C97.0031408,20.2979366 96.6906802,19.6559277 96.5735057,18.8064126 C96.3489212,19.1481715 96.0926059,19.482602 95.8045519,19.8097142 C95.5164979,20.1368263 95.1893907,20.4297582 94.8232204,20.6885185 C94.4570501,20.9472789 94.0493866,21.1572133 93.6002177,21.3183283 C93.1510488,21.4794432 92.6628291,21.5599995 92.1355438,21.5599995 C91.6180232,21.5599995 91.120039,21.4770021 90.6415765,21.3110049 C90.163114,21.1450077 89.7383628,20.8716046 89.3673102,20.4907875 C88.9962576,20.1099704 88.6984436,19.6119863 88.4738591,18.9968202 C88.2492747,18.3816541 88.1369842,17.6297957 88.1369842,16.7412224 C88.1369842,16.0577045 88.2053349,15.3253749 88.3420385,14.5442116 C88.4787421,13.7630483 88.6886766,12.9818967 88.9718483,12.2007334 C89.25502,11.4195701 89.6089793,10.6701528 90.0337368,9.95245899 C90.4584944,9.2347652 90.9564785,8.60007954 91.5277042,8.04838295 C92.0989299,7.49668637 92.745821,7.0572886 93.4683971,6.73017646 C94.1909731,6.40306433 94.9867713,6.23951072 95.8558155,6.23951072 C96.7053306,6.23951072 97.3229286,6.38597664 97.7086279,6.67891288 C98.0943273,6.97184912 98.2871741,7.33313173 98.2871741,7.76277155 L98.2871741,7.87994546 L99.751848,0.981331497 L104.18981,0.380815208 L100.747826,16.5801083 C100.699004,16.7461055 100.664828,16.9096591 100.645299,17.070774 C100.62577,17.231889 100.616006,17.3905604 100.616006,17.546793 C100.616006,17.9666683 100.716091,18.2571591 100.916264,18.418274 C101.116437,18.5793889 101.426456,18.6599452 101.846332,18.6599452 C102.139268,18.6599452 102.41023,18.5940355 102.659226,18.4622142 C102.908221,18.3303929 103.132803,18.1473105 103.332976,17.9129615 C103.533149,17.6786125 103.711349,17.3978862 103.867582,17.070774 C104.023814,16.7436619 104.160516,16.3897026 104.27769,16.0088855 L105.53731,16.0088855 Z M96.5442122,16.0088855 L98.0088861,9.13956499 C97.989357,9.05168412 97.9576227,8.94915797 97.9136823,8.83198348 C97.8697418,8.71480898 97.8038322,8.60007734 97.7159513,8.48778512 C97.6280704,8.37549289 97.5084566,8.28273114 97.3571062,8.20949708 C97.2057558,8.13626302 97.012909,8.09964654 96.77856,8.09964654 C96.3586848,8.09964654 95.9607857,8.23634807 95.5848508,8.50975522 C95.208916,8.78316238 94.8647211,9.14688609 94.5522557,9.60093726 C94.2397904,10.0549884 93.9615052,10.5700603 93.7173916,11.1461682 C93.4732781,11.7222761 93.2657847,12.3154631 93.0949052,12.925747 C92.9240258,13.5360308 92.7946475,14.1365411 92.7067667,14.7272958 C92.6188858,15.3180506 92.574946,15.847769 92.574946,16.316467 C92.574946,16.8925749 92.6286502,17.3368549 92.7360601,17.6493202 C92.8434701,17.9617855 92.9728483,18.1936899 93.1241987,18.3450403 C93.2755491,18.4963907 93.4391027,18.5867113 93.6148645,18.616005 C93.7906262,18.6452986 93.9468565,18.6599452 94.0835601,18.6599452 C94.2886155,18.6599452 94.5156376,18.6086821 94.7646334,18.5061544 C95.0136293,18.4036267 95.2528569,18.2498375 95.4823236,18.0447822 C95.7117904,17.8397268 95.9217249,17.5809703 96.1121334,17.268505 C96.302542,16.9560397 96.4465668,16.5898749 96.5442122,16.1699996 L96.5442122,16.0088855 Z M122.890612,16.0088855 C122.60744,16.8193424 122.299862,17.5223788 121.967867,18.1180159 C121.635873,18.7136529 121.291678,19.2165192 120.935272,19.6266299 C120.578867,20.0367407 120.215143,20.3687301 119.84409,20.6226082 C119.473038,20.8764863 119.111755,21.0717742 118.760232,21.2084777 C118.408708,21.3451813 118.071837,21.4379431 117.749607,21.4867658 C117.427377,21.5355885 117.134445,21.5599995 116.870802,21.5599995 C116.021287,21.5599995 115.345103,21.3280951 114.842229,20.8642794 C114.339355,20.4004637 114.034218,19.7145149 113.926808,18.8064126 C113.682694,19.1481715 113.414174,19.482602 113.121237,19.8097142 C112.828301,20.1368263 112.501194,20.4297582 112.139906,20.6885185 C111.778618,20.9472789 111.375836,21.1572133 110.93155,21.3183283 C110.487263,21.4794432 109.996602,21.5599995 109.459553,21.5599995 C108.942032,21.5599995 108.444048,21.4770021 107.965585,21.3110049 C107.487123,21.1450077 107.062372,20.8716046 106.691319,20.4907875 C106.320266,20.1099704 106.022452,19.6119863 105.797868,18.9968202 C105.573283,18.3816541 105.460993,17.6297957 105.460993,16.7412224 C105.460993,16.0577045 105.529344,15.3253749 105.666047,14.5442116 C105.802751,13.7630483 106.012685,12.9818967 106.295857,12.2007334 C106.579029,11.4195701 106.932988,10.6701528 107.357746,9.95245899 C107.782503,9.2347652 108.280487,8.60007954 108.851713,8.04838295 C109.422939,7.49668637 110.06983,7.0572886 110.792406,6.73017646 C111.514982,6.40306433 112.31078,6.23951072 113.179824,6.23951072 C114.029339,6.23951072 114.646937,6.38597664 115.032637,6.67891288 C115.418336,6.97184912 115.611183,7.33313173 115.611183,7.76277155 L115.611183,7.98247263 L115.933411,6.3859781 L120.254199,6.3859781 L118.101128,16.5801083 C118.052306,16.7461055 118.01813,16.9096591 117.998601,17.070774 C117.979072,17.231889 117.969308,17.3905604 117.969308,17.546793 C117.969308,18.4060727 118.379412,18.8357061 119.199634,18.8357061 C119.49257,18.8357061 119.763532,18.760032 120.012528,18.6086816 C120.261524,18.4573312 120.488546,18.25472 120.693601,18.0008419 C120.898657,17.7469639 121.079298,17.4467087 121.235531,17.1000675 C121.391763,16.7534263 121.523583,16.3897026 121.630992,16.0088855 L122.890612,16.0088855 Z M115.332895,9.24209216 C115.332895,9.15421129 115.313366,9.04436185 115.274308,8.91254054 C115.23525,8.78071923 115.16934,8.6537821 115.076577,8.53172533 C114.983814,8.40966857 114.859318,8.30714242 114.703085,8.22414382 C114.546852,8.14114522 114.346682,8.09964654 114.102569,8.09964654 C113.682693,8.09964654 113.284794,8.23634807 112.90886,8.50975522 C112.532925,8.78316238 112.18873,9.14688609 111.876264,9.60093726 C111.563799,10.0549884 111.285514,10.5700603 111.0414,11.1461682 C110.797287,11.7222761 110.589793,12.3154631 110.418914,12.925747 C110.248034,13.5360308 110.118656,14.1365411 110.030775,14.7272958 C109.942895,15.3180506 109.898955,15.847769 109.898955,16.316467 C109.898955,16.8925749 109.952659,17.3368549 110.060069,17.6493202 C110.167479,17.9617855 110.296857,18.1936899 110.448207,18.3450403 C110.599558,18.4963907 110.763111,18.5867113 110.938873,18.616005 C111.114635,18.6452986 111.270865,18.6599452 111.407569,18.6599452 C111.632153,18.6599452 111.86894,18.6037999 112.117936,18.4915077 C112.366931,18.3792155 112.606159,18.2132208 112.835626,17.9935186 C113.065093,17.7738164 113.275027,17.4979722 113.465436,17.1659778 C113.655844,16.8339834 113.799869,16.4482898 113.897514,16.0088855 L115.332895,9.24209216 Z M135.923126,16.0088855 C135.141963,16.9169878 134.35837,17.6664051 133.572325,18.2571599 C132.786279,18.8479146 132.041744,19.3483399 131.338697,19.7584506 C131.026232,20.090445 130.677155,20.3711714 130.291455,20.6006381 C129.905756,20.8301048 129.505416,21.0156283 129.090423,21.1572141 C128.67543,21.2988 128.255561,21.4013261 127.830803,21.4647957 C127.406046,21.5282652 127.003264,21.5599995 126.622447,21.5599995 C125.870577,21.5599995 125.218804,21.4452678 124.667108,21.2158011 C124.115411,20.9863344 123.658926,20.6885203 123.297637,20.32235 C122.936349,19.9561797 122.67027,19.5460752 122.49939,19.092024 C122.328511,18.6379728 122.243072,18.1814874 122.243072,17.7225539 C122.243072,17.3710304 122.289453,17.0463643 122.382216,16.7485458 C122.474979,16.4507273 122.594593,16.1846475 122.741061,15.9502985 C122.88753,15.7159495 123.055965,15.5133383 123.246374,15.3424589 C123.436782,15.1715794 123.634511,15.037319 123.839567,14.9396735 C124.679317,13.4359342 125.387236,11.9493051 125.963344,10.4797416 C126.539452,9.01017812 127.061847,7.53331339 127.530545,6.04910311 L131.968507,5.46323356 C132.027094,6.76191756 132.083239,7.88726407 132.136944,8.83930685 C132.190649,9.79134963 132.241912,10.616441 132.290735,11.3146057 C132.339558,12.0127704 132.383498,12.6059574 132.422556,13.0941845 C132.461614,13.5824115 132.49823,14.014486 132.532406,14.3904208 C132.566582,14.7663557 132.590993,15.1081095 132.60564,15.4156926 C132.620287,15.7232756 132.62761,16.0430595 132.62761,16.3750539 C132.62761,16.5996384 132.620287,16.8046907 132.60564,16.990217 C132.590993,17.1757433 132.559259,17.3515024 132.510436,17.5174996 C132.949841,17.2636215 133.34774,17.0121883 133.704145,16.7631925 C134.060551,16.5141967 134.380335,16.2627635 134.663507,16.0088855 L135.923126,16.0088855 Z M123.839567,17.0927441 C123.839567,17.7957911 123.978709,18.3206273 124.256999,18.6672686 C124.535288,19.0139098 125.00642,19.1872278 125.670409,19.1872278 C126.002404,19.1872278 126.324629,19.1408469 126.637094,19.0480838 C126.949559,18.9553206 127.227844,18.7990903 127.471958,18.5793881 C127.716072,18.3596859 127.911359,18.0740774 128.057828,17.7225539 C128.204296,17.3710304 128.277529,16.9316327 128.277529,16.4043474 C128.277529,16.1504693 128.270205,15.9039184 128.255559,15.6646871 C128.240912,15.4254558 128.223824,15.1715816 128.204295,14.9030567 C128.184766,14.6345318 128.157914,14.3342767 128.123738,14.0022823 C128.089562,13.6702879 128.050504,13.2845943 128.006564,12.8451899 C127.962624,12.4057855 127.916243,11.898037 127.86742,11.3219291 C127.818597,10.7458211 127.764893,10.0720779 127.706306,9.30067912 C127.403605,10.2771333 127.047205,11.2242796 126.637094,12.1421464 C126.226983,13.0600133 125.772939,14.0022774 125.274947,14.968967 C125.470238,15.076377 125.633792,15.2130785 125.765613,15.3790757 C125.897434,15.5450729 125.963344,15.7550074 125.963344,16.0088855 C125.963344,16.1944118 125.934051,16.3750531 125.875464,16.5508148 C125.816876,16.7265766 125.728997,16.885248 125.611822,17.0268338 C125.494648,17.1684197 125.355505,17.2807102 125.19439,17.3637088 C125.033275,17.4467074 124.850193,17.4882061 124.645137,17.4882061 C124.47914,17.4882061 124.32291,17.4637951 124.176442,17.4149724 C124.029974,17.3661497 123.917683,17.2587413 123.839567,17.0927441 Z M135.070532,21.3842386 L139.420614,0.981331497 L143.858575,0.380815208 L142.247434,7.90923893 C142.569664,7.55771545 142.889448,7.274548 143.206796,7.05972809 C143.524143,6.84490818 143.834163,6.67891346 144.136864,6.56173897 C144.439564,6.44456447 144.725173,6.36644931 144.993698,6.32739115 C145.262223,6.28833298 145.513656,6.26880419 145.748005,6.26880419 C146.226467,6.26880419 146.670747,6.33227276 147.080858,6.4592118 C147.490969,6.58615083 147.844928,6.78632093 148.142747,7.05972809 C148.440565,7.33313524 148.672469,7.68465346 148.838467,8.11429328 C149.004464,8.5439331 149.087461,9.05656383 149.087461,9.65220085 C149.087461,10.052547 149.050845,10.4846215 148.977611,10.9484372 C148.904377,11.4122529 148.814056,11.8858261 148.706646,12.3691709 C148.599236,12.8525157 148.484504,13.3334121 148.362448,13.8118747 C148.240391,14.2903372 148.125659,14.7492637 148.018249,15.1886681 C147.910839,15.6280725 147.820519,16.0357359 147.747285,16.4116708 C147.674051,16.7876056 147.637434,17.117154 147.637434,17.4003257 C147.637434,17.7713782 147.722873,18.0740745 147.893752,18.3084235 C148.064631,18.5427725 148.379533,18.6599452 148.838467,18.6599452 C149.316929,18.6599452 149.648919,18.5964766 149.834445,18.4695376 C149.766093,19.0163519 149.629392,19.4826018 149.424336,19.8683011 C149.219281,20.2540005 148.967848,20.5737845 148.670029,20.8276625 C148.372211,21.0815406 148.040221,21.2670641 147.674051,21.3842386 C147.307881,21.5014131 146.924628,21.5599995 146.524282,21.5599995 C145.948174,21.5599995 145.467278,21.4647966 145.081578,21.2743881 C144.695879,21.0839795 144.385859,20.8301052 144.15151,20.5127576 C143.917161,20.1954101 143.751167,19.8341274 143.653521,19.428899 C143.555876,19.0236705 143.507054,18.6062426 143.507054,18.1766028 C143.507054,17.6688467 143.577846,17.0756597 143.719431,16.3970241 C143.861017,15.7183884 144.014807,15.0226753 144.180804,14.3098638 C144.346801,13.5970523 144.50059,12.9086624 144.642176,12.2446736 C144.783762,11.5806848 144.854554,11.0094677 144.854554,10.5310052 C144.854554,9.50572833 144.493271,8.9930976 143.770695,8.9930976 C143.516817,8.9930976 143.28003,9.05412507 143.060328,9.17618184 C142.840626,9.2982386 142.635574,9.46911551 142.445165,9.68881769 C142.254757,9.90851987 142.081439,10.1648352 141.925206,10.4577715 C141.768973,10.7507077 141.632272,11.0631684 141.515097,11.3951628 L139.39132,21.3842386 L135.070532,21.3842386 Z" id="dime-dash"></path>
            <path d="M79.2983398,15.1923828 C79.1860346,15.2216798 79.0810552,15.2424316 78.9833984,15.2546387 C78.8857417,15.2668458 78.7880864,15.2753906 78.6904297,15.2802734 C78.6171871,15.9248079 78.4523939,16.5095189 78.1960449,17.0344238 C77.939696,17.5593288 77.6101094,18.0085431 77.2072754,18.3820801 C76.8044413,18.7556171 76.335696,19.0437002 75.8010254,19.2463379 C75.2663547,19.4489756 74.6840852,19.550293 74.0541992,19.550293 C73.580564,19.550293 73.1557636,19.4892584 72.7797852,19.3671875 C72.4038067,19.2451166 72.0839857,19.0681164 71.8203125,18.8361816 C71.5566393,18.6042469 71.3540046,18.323488 71.2124023,17.9938965 C71.0708001,17.664305 71,17.2919943 71,16.8769531 C71,16.4570292 71.0720208,16.0432149 71.2160645,15.635498 C71.3601081,15.2277812 71.5578601,14.8518084 71.8093262,14.5075684 C72.0607923,14.1633284 72.3549788,13.8630384 72.6918945,13.6066895 C73.0288103,13.3503405 73.3901348,13.1660162 73.7758789,13.0537109 L73.7758789,12.9951172 C73.6147453,12.8632806 73.4804693,12.7302253 73.3730469,12.5959473 C73.2656245,12.4616693 73.1777347,12.3188484 73.109375,12.1674805 C73.0410153,12.0161125 72.9921876,11.8525399 72.9628906,11.6767578 C72.9335936,11.5009757 72.9189453,11.3056651 72.9189453,11.0908203 C72.9189453,10.680662 73.0056144,10.2888202 73.1789551,9.9152832 C73.3522958,9.54174618 73.5878891,9.21338032 73.8857422,8.93017578 C74.1835952,8.64697124 74.5314922,8.42114342 74.9294434,8.25268555 C75.3273946,8.08422767 75.7509743,8 76.2001953,8 C76.5419939,8 76.8569322,8.05126902 77.1450195,8.15380859 C77.4331069,8.25634817 77.6809072,8.4003897 77.8884277,8.5859375 C78.0959483,8.7714853 78.2570795,8.99120967 78.3718262,9.24511719 C78.4865728,9.49902471 78.5439453,9.77490085 78.5439453,10.0727539 C78.5439453,10.2778331 78.5158694,10.4658195 78.4597168,10.6367188 C78.4035642,10.807618 78.32544,10.954101 78.2253418,11.0761719 C78.1252436,11.1982428 78.0043952,11.2934567 77.862793,11.3618164 C77.7211907,11.4301761 77.5673836,11.4643555 77.4013672,11.4643555 C77.2158194,11.4643555 77.0449227,11.4240727 76.8886719,11.3435059 C76.7324211,11.2629391 76.5981451,11.1494148 76.4858398,11.0029297 C76.6665048,10.8906244 76.8142084,10.7197277 76.9289551,10.4902344 C77.0437017,10.260741 77.1010742,10.0166029 77.1010742,9.7578125 C77.1010742,9.4794908 77.0314948,9.25976643 76.892334,9.09863281 C76.7531731,8.93749919 76.563966,8.85693359 76.324707,8.85693359 C76.1196279,8.85693359 75.9243173,8.91552676 75.7387695,9.03271484 C75.5532217,9.14990293 75.3896491,9.30859275 75.2480469,9.50878906 C75.1064446,9.70898538 74.9929203,9.93969596 74.9074707,10.2009277 C74.8220211,10.4621595 74.7792969,10.7343736 74.7792969,11.0175781 C74.7792969,11.5205103 74.9135729,11.9428694 75.1821289,12.284668 C75.4506849,12.6264666 75.821775,12.8583978 76.2954102,12.9804688 L76.2954102,13.0390625 C75.9340802,13.1074222 75.5910661,13.2502431 75.2663574,13.4675293 C74.9416488,13.6848155 74.6560071,13.9509262 74.4094238,14.2658691 C74.1628406,14.5808121 73.96753,14.9274883 73.8234863,15.3059082 C73.6794426,15.6843281 73.6074219,16.0688457 73.6074219,16.4594727 C73.6074219,16.9770534 73.7380358,17.3811021 73.9992676,17.6716309 C74.2604994,17.9621597 74.6206032,18.1074219 75.0795898,18.1074219 C75.4067399,18.1074219 75.730223,18.0390632 76.0500488,17.9023438 C76.3698746,17.7656243 76.6628405,17.5727552 76.9289551,17.3237305 C77.1950697,17.0747058 77.4257803,16.7768572 77.6210938,16.4301758 C77.8164072,16.0834944 77.9506832,15.7001974 78.0239258,15.2802734 C77.9116205,15.2851563 77.8005377,15.2937011 77.6906738,15.3059082 C77.58081,15.3181153 77.462403,15.3413084 77.3354492,15.3754883 C77.071776,15.4682622 76.8374034,15.5842278 76.6323242,15.7233887 C76.4272451,15.8625495 76.2685552,16.0151359 76.15625,16.1811523 L76.1196289,16.1884766 C76.0512692,16.1054683 75.9951174,16.0187993 75.9511719,15.9284668 C75.9072263,15.8381343 75.8706056,15.7465825 75.8413086,15.6538086 C75.7778317,15.4340809 75.7656248,15.2253428 75.8046875,15.0275879 C75.8437502,14.829833 75.9206537,14.6491707 76.0354004,14.4855957 C76.1501471,14.3220207 76.2954093,14.1791998 76.4711914,14.0571289 C76.6469735,13.935058 76.8374013,13.8398441 77.0424805,13.7714844 C77.2036141,13.722656 77.3708487,13.687256 77.5441895,13.6652832 C77.7175302,13.6433104 77.8896476,13.6250001 78.0605469,13.6103516 C78.2314462,13.5957031 78.4011222,13.5810548 78.5695801,13.5664062 C78.738038,13.5517577 78.8979485,13.5273439 79.0493164,13.4931641 C79.1665045,13.4541014 79.2873529,13.4028323 79.4118652,13.3393555 C79.5363776,13.2758786 79.6535639,13.2050785 79.7634277,13.1269531 C79.8732916,13.0488277 79.9733882,12.9694828 80.0637207,12.888916 C80.1540532,12.8083492 80.226074,12.7290043 80.2797852,12.6508789 L80.3164062,12.6508789 C80.3994145,12.7338871 80.4665525,12.8217769 80.5178223,12.9145508 C80.5690921,13.0073247 80.6093749,13.1025386 80.6386719,13.2001953 C80.7021488,13.4101573 80.7094729,13.6188954 80.6606445,13.826416 C80.6118162,14.0339366 80.5239264,14.2268057 80.3969727,14.4050293 C80.2700189,14.5832528 80.1113291,14.740722 79.9208984,14.8774414 C79.7304678,15.0141608 79.5229503,15.1191403 79.2983398,15.1923828 Z" id="&amp;"></path>
        </g>
    </g>
</svg>